<svg width="34" height="34" viewBox="0 0 34 34" fill="none" xmlns="http://www.w3.org/2000/svg">
<g id="FunnelSimple-r">
<g id="Vector">
<path d="M25.5 15.9375H8.5C8.21821 15.9375 7.94796 16.0494 7.7487 16.2487C7.54944 16.448 7.4375 16.7182 7.4375 17C7.4375 17.2818 7.54944 17.552 7.7487 17.7513C7.94796 17.9506 8.21821 18.0625 8.5 18.0625H25.5C25.7818 18.0625 26.052 17.9506 26.2513 17.7513C26.4506 17.552 26.5625 17.2818 26.5625 17C26.5625 16.7182 26.4506 16.448 26.2513 16.2487C26.052 16.0494 25.7818 15.9375 25.5 15.9375Z" fill="#1C1C1C"/>
<path d="M30.8125 9.5625H3.1875C2.90571 9.5625 2.63546 9.67444 2.4362 9.8737C2.23694 10.073 2.125 10.3432 2.125 10.625C2.125 10.9068 2.23694 11.177 2.4362 11.3763C2.63546 11.5756 2.90571 11.6875 3.1875 11.6875H30.8125C31.0943 11.6875 31.3645 11.5756 31.5638 11.3763C31.7631 11.177 31.875 10.9068 31.875 10.625C31.875 10.3432 31.7631 10.073 31.5638 9.8737C31.3645 9.67444 31.0943 9.5625 30.8125 9.5625Z" fill="#1C1C1C"/>
<path d="M20.1875 22.3125H13.8125C13.5307 22.3125 13.2605 22.4244 13.0612 22.6237C12.8619 22.823 12.75 23.0932 12.75 23.375C12.75 23.6568 12.8619 23.927 13.0612 24.1263C13.2605 24.3256 13.5307 24.4375 13.8125 24.4375H20.1875C20.4693 24.4375 20.7395 24.3256 20.9388 24.1263C21.1381 23.927 21.25 23.6568 21.25 23.375C21.25 23.0932 21.1381 22.823 20.9388 22.6237C20.7395 22.4244 20.4693 22.3125 20.1875 22.3125Z" fill="#1C1C1C"/>
</g>
</g>
</svg>
