<svg width="24" height="24" viewBox="0 0 24 24" fill="none" xmlns="http://www.w3.org/2000/svg">
<g id="arrow-left">
<path id="Vector" d="M11.2884 6.29323L6.28843 11.2932C6.19739 11.3883 6.12603 11.5005 6.07843 11.6232C5.97841 11.8667 5.97841 12.1398 6.07843 12.3832C6.12603 12.506 6.19739 12.6181 6.28843 12.7132L11.2884 17.7132C11.3817 17.8065 11.4924 17.8804 11.6142 17.9309C11.736 17.9814 11.8666 18.0073 11.9984 18.0073C12.2647 18.0073 12.5201 17.9015 12.7084 17.7132C12.8967 17.5249 13.0025 17.2695 13.0025 17.0032C13.0025 16.7369 12.8967 16.4815 12.7084 16.2932L9.40843 13.0032L16.9984 13.0032C17.2636 13.0032 17.518 12.8979 17.7055 12.7103C17.8931 12.5228 17.9984 12.2684 17.9984 12.0032C17.9984 11.738 17.8931 11.4837 17.7055 11.2961C17.518 11.1086 17.2636 11.0032 16.9984 11.0032L9.40843 11.0032L12.7084 7.71323C12.8022 7.62027 12.8766 7.50967 12.9273 7.38781C12.9781 7.26595 13.0042 7.13524 13.0042 7.00323C13.0042 6.87122 12.9781 6.74052 12.9273 6.61866C12.8766 6.4968 12.8022 6.3862 12.7084 6.29323C12.6155 6.19951 12.5049 6.12511 12.383 6.07434C12.2611 6.02357 12.1304 5.99743 11.9984 5.99743C11.8664 5.99743 11.7357 6.02357 11.6139 6.07434C11.492 6.12511 11.3814 6.19951 11.2884 6.29323Z" fill="black"/>
</g>
</svg>
