<svg width="17" height="8" viewBox="0 0 17 8" fill="none" xmlns="http://www.w3.org/2000/svg">
<g id="Frame 12408">
<g id="Vector">
<path d="M0.679636 4.91266L2.42725 6.98954C2.57922 7.16684 2.85783 7.19216 3.06045 7.0402C3.23774 6.88823 3.26307 6.60963 3.1111 6.407L1.4648 4.45676L15.4964 4.45676C15.7497 4.45676 15.9523 4.25414 15.9523 4.00086C15.9523 3.74759 15.7497 3.54496 15.4964 3.54496L1.4648 3.54496L3.1111 1.59472C3.26307 1.41743 3.23774 1.13882 3.06045 0.96153C2.98446 0.885547 2.88315 0.860219 2.78184 0.860219C2.6552 0.860219 2.52856 0.910874 2.45258 1.01219L0.704964 3.08906C0.249063 3.64628 0.249063 4.40611 0.679636 4.91266Z" fill="#637381"/>
<path fill-rule="evenodd" clip-rule="evenodd" d="M3.06045 7.0402C2.85783 7.19216 2.57922 7.16684 2.42725 6.98954L0.679636 4.91266C0.249063 4.40611 0.249063 3.64628 0.704964 3.08906L2.45258 1.01219C2.52856 0.910874 2.6552 0.860219 2.78184 0.860219C2.88315 0.860219 2.98446 0.885547 3.06045 0.96153C3.23774 1.13882 3.26307 1.41743 3.1111 1.59472L1.4648 3.54496L15.4964 3.54496C15.7497 3.54496 15.9523 3.74759 15.9523 4.00086C15.9523 4.25414 15.7497 4.45676 15.4964 4.45676L1.4648 4.45676L3.1111 6.407C3.26307 6.60963 3.23774 6.88823 3.06045 7.0402ZM2.24027 4.81698L15.4964 4.81698C15.9486 4.81698 16.3125 4.45308 16.3125 4.00086C16.3125 3.54864 15.9486 3.18475 15.4964 3.18475L2.24027 3.18475L3.3846 1.82915C3.38492 1.82877 3.38525 1.82839 3.38557 1.82801C3.67749 1.48615 3.60401 0.995679 3.31515 0.706818C3.14779 0.539455 2.93867 0.500001 2.78184 0.500001C2.57053 0.500001 2.32972 0.582874 2.17157 0.786654L0.429336 2.85714L0.426165 2.86096C-0.132016 3.54318 -0.14576 4.49707 0.40454 5.14522C0.40475 5.14547 0.404958 5.14571 0.405167 5.14596L2.15163 7.22147L2.15375 7.22397C2.44033 7.55831 2.93606 7.58376 3.27657 7.32837L3.28596 7.32133L3.29487 7.31369C3.62921 7.02712 3.65466 6.53138 3.39927 6.19087L3.39305 6.18257L2.24027 4.81698Z" fill="#637381"/>
</g>
</g>
</svg>
