<svg width="24" height="24" viewBox="0 0 24 24" fill="none" xmlns="http://www.w3.org/2000/svg">
<g id="Component 1">
<path id="Vector" d="M14.5 9V9.5H15H16.59C17.0262 9.5 17.2574 10.0355 16.9364 10.3564L12.3464 14.9464C12.1517 15.1412 11.8383 15.1412 11.6436 14.9464L7.05355 10.3564C6.74017 10.0431 6.96314 9.5 7.41 9.5H9H9.5V9V4C9.5 3.72614 9.72614 3.5 10 3.5H14C14.2739 3.5 14.5 3.72614 14.5 4V9ZM6 19.5C5.72614 19.5 5.5 19.2739 5.5 19C5.5 18.7261 5.72614 18.5 6 18.5H18C18.2739 18.5 18.5 18.7261 18.5 19C18.5 19.2739 18.2739 19.5 18 19.5H6Z" fill="white" stroke="#964D22"/>
</g>
</svg>
