<svg width="24" height="24" viewBox="0 0 24 24" fill="none" xmlns="http://www.w3.org/2000/svg">
<g id="ChartPieSlice">
<path id="Vector" d="M8.79562 10.935C8.97114 10.8377 9.11742 10.6951 9.2193 10.5222C9.32117 10.3493 9.37493 10.1523 9.375 9.95156V3.81938C9.37502 3.63083 9.32765 3.4453 9.23725 3.27984C9.14684 3.11438 9.0163 2.97429 8.85762 2.87246C8.69894 2.77062 8.51721 2.7103 8.32913 2.69704C8.14105 2.68378 7.95265 2.718 7.78125 2.79656C6.02087 3.60671 4.52923 4.9039 3.4826 6.5348C2.43598 8.1657 1.87814 10.0622 1.875 12C1.875 12.3159 1.89 12.6338 1.91906 12.9469C1.93648 13.1329 1.99997 13.3117 2.1038 13.4671C2.20763 13.6225 2.34853 13.7495 2.51377 13.8368C2.67901 13.9241 2.86339 13.9688 3.05025 13.967C3.23711 13.9651 3.42057 13.9168 3.58406 13.8263L8.79562 10.935ZM7.125 5.81813V9.28687L4.20094 10.9088C4.48668 8.89966 5.53351 7.07719 7.125 5.81813ZM20.8013 6.99938C20.7909 6.97688 20.7787 6.95531 20.7666 6.93375C20.7544 6.91219 20.7422 6.89344 20.7291 6.87469C19.8355 5.35328 18.5601 4.09164 17.029 3.21471C15.498 2.33778 13.7644 1.87597 12 1.875C11.7016 1.875 11.4155 1.99353 11.2045 2.2045C10.9935 2.41548 10.875 2.70163 10.875 3V11.3934L3.67313 15.5878C3.54506 15.6624 3.43299 15.7616 3.34337 15.8796C3.25374 15.9976 3.18831 16.1322 3.15085 16.2756C3.1134 16.419 3.10464 16.5684 3.12508 16.7152C3.14553 16.8619 3.19478 17.0032 3.27 17.1309C4.39577 19.0472 6.12078 20.5399 8.17895 21.3786C10.2371 22.2174 12.5141 22.3556 14.6586 21.772C16.8031 21.1885 18.696 19.9155 20.0454 18.1495C21.3947 16.3834 22.1255 14.2225 22.125 12C22.1276 10.2462 21.6712 8.52223 20.8013 6.99938ZM13.125 4.20469C15.1256 4.49561 16.938 5.5441 18.1875 7.13344L13.125 10.0828V4.20469ZM12 19.875C10.8201 19.8718 9.65579 19.605 8.59223 19.0941C7.52867 18.5831 6.59272 17.841 5.85281 16.9219L12.5484 13.0219L12.5822 13.0031L19.3125 9.08156C19.7892 10.2762 19.966 11.5694 19.8274 12.8481C19.6889 14.1268 19.2393 15.3522 18.5179 16.417C17.7964 17.4819 16.8252 18.3538 15.689 18.9566C14.5528 19.5594 13.2862 19.8747 12 19.875Z" fill="#1C1C1C"/>
</g>
</svg>
