<svg width="58" height="72" viewBox="0 0 58 72" fill="none" xmlns="http://www.w3.org/2000/svg">
<g id="Cell">
<rect width="58" height="72" fill="white"/>
<path id="Dots" fill-rule="evenodd" clip-rule="evenodd" d="M24 38C24 39.1046 23.1046 40 22 40C20.8954 40 20 39.1046 20 38C20 36.8954 20.8954 36 22 36C23.1046 36 24 36.8954 24 38ZM32 38C32 39.1046 31.1046 40 30 40C28.8954 40 28 39.1046 28 38C28 36.8954 28.8954 36 30 36C31.1046 36 32 36.8954 32 38ZM38 40C39.1046 40 40 39.1046 40 38C40 36.8954 39.1046 36 38 36C36.8954 36 36 36.8954 36 38C36 39.1046 36.8954 40 38 40Z" fill="#424242"/>
</g>
</svg>
