<svg width="45" height="40" viewBox="0 0 45 40" fill="none" xmlns="http://www.w3.org/2000/svg">
<g id="Stockholm-icons / Files / Group-folders">
<path id="Combined Shape" opacity="0.3" fill-rule="evenodd" clip-rule="evenodd" d="M39.4561 33.4998C39.4561 34.3283 38.7845 34.9998 37.9561 34.9998H3.99581C3.16739 34.9998 2.49581 34.3283 2.49581 33.4998V13.1665C2.49581 12.3381 3.16738 11.6665 3.99581 11.6665H24.672L29.7879 7.0526C30.0635 6.80406 30.4214 6.6665 30.7925 6.6665H37.9561C38.7845 6.6665 39.4561 7.33808 39.4561 8.1665V33.4998Z" fill="#964D22"/>
<path id="Combined Shape Copy" fill-rule="evenodd" clip-rule="evenodd" d="M43.1523 30.1668C43.1523 30.9953 42.4808 31.6668 41.6523 31.6668H7.69209C6.86367 31.6668 6.19209 30.9953 6.19209 30.1668V9.8335C6.19209 9.00507 6.86366 8.3335 7.69209 8.3335H28.3682L33.4842 3.71959C33.7598 3.47106 34.1177 3.3335 34.4888 3.3335H41.6523C42.4808 3.3335 43.1523 4.00507 43.1523 4.8335V30.1668Z" fill="#964D22"/>
</g>
</svg>
