<svg width="25" height="25" viewBox="0 0 25 25" fill="none" xmlns="http://www.w3.org/2000/svg">
<g id="bell 1" clip-path="url(#clip0_38_8071)">
<path id="Vector" d="M7.92383 21.5C8.31149 22.3914 8.95106 23.1502 9.76398 23.6831C10.5769 24.216 11.5278 24.4999 12.4998 24.4999C13.4719 24.4999 14.4228 24.216 15.2357 23.6831C16.0486 23.1502 16.6882 22.3914 17.0758 21.5H7.92383Z" fill="#008D0E"/>
<path id="Vector_2" d="M22.8918 13.0492L21.1558 7.32617C20.5999 5.32452 19.3912 3.56595 17.7217 2.32968C16.0522 1.0934 14.0175 0.450292 11.9407 0.502452C9.86396 0.554612 7.86413 1.29905 6.25878 2.61758C4.65342 3.9361 3.53455 5.75314 3.07981 7.78017L1.73181 13.3172C1.55264 14.0529 1.54293 14.8198 1.70342 15.5598C1.8639 16.2999 2.19039 16.9938 2.65823 17.5893C3.12607 18.1847 3.72306 18.6661 4.40412 18.9971C5.08519 19.3282 5.83255 19.5002 6.58981 19.5002H18.1068C18.8875 19.5002 19.6574 19.3174 20.3548 18.9664C21.0522 18.6154 21.6577 18.106 22.1228 17.4789C22.588 16.8519 22.8998 16.1246 23.0333 15.3554C23.1668 14.5861 23.1184 13.7963 22.8918 13.0492Z" fill="#008D0E"/>
</g>
<defs>
<clipPath id="clip0_38_8071">
<rect width="24" height="24" fill="white" transform="translate(0.5 0.5)"/>
</clipPath>
</defs>
</svg>
