<svg width="34" height="34" viewBox="0 0 34 34" fill="none" xmlns="http://www.w3.org/2000/svg">
<g id="ArrowsDownUp-d">
<path id="Vector" d="M7.1263 22.6237C6.92704 22.4244 6.65679 22.3125 6.375 22.3125C6.09321 22.3125 5.82296 22.4244 5.6237 22.6237C5.42444 22.823 5.3125 23.0932 5.3125 23.375C5.3125 23.6568 5.42444 23.927 5.6237 24.1263L9.8737 28.3763C10.073 28.5756 10.3432 28.6875 10.625 28.6875C10.9068 28.6875 11.177 28.5756 11.3763 28.3763L15.6259 24.1267L15.6263 24.1263C15.8256 23.927 15.9375 23.6568 15.9375 23.375C15.9375 23.0932 15.8256 22.823 15.6263 22.6237C15.427 22.4244 15.1568 22.3125 14.875 22.3125C14.5932 22.3125 14.323 22.4244 14.1237 22.6237L14.1233 22.6241L10.625 26.1224L7.1263 22.6237Z" fill="#1C1C1C"/>
<path id="Vector_2" d="M9.5625 6.375V27.625C9.5625 28.2118 10.0382 28.6875 10.625 28.6875C11.2118 28.6875 11.6875 28.2118 11.6875 27.625V6.375C11.6875 5.7882 11.2118 5.3125 10.625 5.3125C10.0382 5.3125 9.5625 5.7882 9.5625 6.375Z" fill="#1C1C1C"/>
<path id="Vector_3" d="M26.8731 11.3758L26.8737 11.3763C27.073 11.5756 27.3432 11.6875 27.625 11.6875C27.9068 11.6875 28.177 11.5756 28.3763 11.3763C28.5756 11.177 28.6875 10.9068 28.6875 10.625C28.6875 10.3432 28.5756 10.073 28.3763 9.8737L24.1263 5.6237C23.927 5.42444 23.6568 5.3125 23.375 5.3125C23.0932 5.3125 22.823 5.42444 22.6237 5.6237L18.3737 9.8737C18.1744 10.073 18.0625 10.3432 18.0625 10.625C18.0625 10.642 18.0629 10.659 18.0637 10.676C18.0764 10.9399 18.1869 11.1895 18.3737 11.3763C18.573 11.5756 18.8432 11.6875 19.125 11.6875C19.4068 11.6875 19.677 11.5756 19.8763 11.3763L19.8767 11.3759L23.375 7.8776L26.8731 11.3758Z" fill="#1C1C1C"/>
<path id="Vector_4" d="M24.4375 27.625V6.375C24.4375 5.7882 23.9618 5.3125 23.375 5.3125C22.7882 5.3125 22.3125 5.7882 22.3125 6.375V27.625C22.3125 28.2118 22.7882 28.6875 23.375 28.6875C23.9618 28.6875 24.4375 28.2118 24.4375 27.625Z" fill="#1C1C1C"/>
</g>
</svg>
