<svg width="24" height="24" viewBox="0 0 24 24" fill="none" xmlns="http://www.w3.org/2000/svg">
<g id="tdesign:setting-1">
<path id="Vector" d="M9.18045 1H14.8205L15.4675 4.237C16.0032 4.47701 16.5126 4.77192 16.9875 5.117L20.1165 4.058L22.9365 8.942L20.4555 11.122C20.5155 11.7058 20.5155 12.2942 20.4555 12.878L22.9355 15.058L20.1165 19.942L16.9875 18.884C16.5125 19.2287 16.0031 19.5233 15.4675 19.763L14.8195 23H9.18045L8.53345 19.763C7.99775 19.523 7.48836 19.2281 7.01345 18.883L3.88445 19.942L1.06445 15.058L3.54545 12.878C3.48545 12.2942 3.48545 11.7058 3.54545 11.122L1.06545 8.942L3.88545 4.058L7.01345 5.116C7.48839 4.77127 7.99777 4.47669 8.53345 4.237L9.18045 1ZM10.8205 3L10.2785 5.705L9.75345 5.898C9.05762 6.15474 8.41093 6.52882 7.84145 7.004L7.41145 7.363L4.79645 6.478L3.61645 8.522L5.68845 10.343L5.59345 10.894C5.46805 11.626 5.46805 12.374 5.59345 13.106L5.68845 13.656L3.61545 15.478L4.79545 17.522L7.41145 16.637L7.84145 16.996C8.41124 17.4707 9.05786 17.8448 9.75345 18.102L10.2785 18.295L10.8205 21H13.1805L13.7225 18.295L14.2475 18.102C14.9433 17.8452 15.59 17.4711 16.1595 16.996L16.5895 16.637L19.2055 17.522L20.3855 15.478L18.3135 13.657L18.4075 13.106C18.5328 12.374 18.5328 11.626 18.4075 10.894L18.3135 10.344L20.3855 8.522L19.2055 6.478L16.5895 7.363L16.1595 7.004C15.59 6.52879 14.9433 6.1547 14.2475 5.898L13.7225 5.705L13.1805 3H10.8205ZM12.0005 9C11.2048 9 10.4417 9.31607 9.87913 9.87868C9.31652 10.4413 9.00045 11.2044 9.00045 12C9.00045 12.7956 9.31652 13.5587 9.87913 14.1213C10.4417 14.6839 11.2048 15 12.0005 15C12.7961 15 13.5592 14.6839 14.1218 14.1213C14.6844 13.5587 15.0005 12.7956 15.0005 12C15.0005 11.2044 14.6844 10.4413 14.1218 9.87868C13.5592 9.31607 12.7961 9 12.0005 9ZM7.00045 12C7.00045 10.6739 7.52724 9.40215 8.46492 8.46447C9.4026 7.52678 10.6744 7 12.0005 7C13.3265 7 14.5983 7.52678 15.536 8.46447C16.4737 9.40215 17.0005 10.6739 17.0005 12C17.0005 13.3261 16.4737 14.5979 15.536 15.5355C14.5983 16.4732 13.3265 17 12.0005 17C10.6744 17 9.4026 16.4732 8.46492 15.5355C7.52724 14.5979 7.00045 13.3261 7.00045 12Z" fill="black"/>
</g>
</svg>
