<svg width="28" height="29" viewBox="0 0 28 29" fill="none" xmlns="http://www.w3.org/2000/svg">
<g id="fluent:video-28-filled">
<path id="Vector" d="M5.25 5.5C4.38805 5.5 3.5614 5.84241 2.9519 6.4519C2.34241 7.0614 2 7.88805 2 8.75V19.25C2 20.112 2.34241 20.9386 2.9519 21.5481C3.5614 22.1576 4.38805 22.5 5.25 22.5H14.75C15.612 22.5 16.4386 22.1576 17.0481 21.5481C17.6576 20.9386 18 20.112 18 19.25V8.75C18 7.88805 17.6576 7.0614 17.0481 6.4519C16.4386 5.84241 15.612 5.5 14.75 5.5H5.25ZM23.123 20.643L19.5 17.093V11L23.112 7.372C23.899 6.582 25.248 7.139 25.248 8.254V19.75C25.248 20.858 23.914 21.418 23.123 20.643Z" fill="white"/>
</g>
</svg>
